<svg xmlns="http://www.w3.org/2000/svg" xmlns:xlink="http://www.w3.org/1999/xlink" xmlns:lucid="lucid" width="1262" height="706.2"><g transform="translate(1841 961)" lucid:page-tab-id="0_0"><path d="M-2000-1000h1500V0h-1500z" fill="#fff"/><path d="M-1360-940h300v304h-300z" stroke="#333" stroke-width="2" fill="#fff"/><path d="M-1360-902.4h300" stroke="#333" stroke-width="2" fill="none"/><use xlink:href="#a" transform="matrix(1,0,0,1,-1352,-932) translate(101.07499999999999 14.6)"/><use xlink:href="#b" transform="matrix(1,0,0,1,-1348,-894.4) translate(0 85.9)"/><use xlink:href="#c" transform="matrix(1,0,0,1,-1348,-894.4) translate(29.9 85.9)"/><use xlink:href="#d" transform="matrix(1,0,0,1,-1348,-894.4) translate(0 107.5)"/><use xlink:href="#e" transform="matrix(1,0,0,1,-1348,-894.4) translate(76.85 107.5)"/><use xlink:href="#f" transform="matrix(1,0,0,1,-1348,-894.4) translate(0 129.1)"/><use xlink:href="#c" transform="matrix(1,0,0,1,-1348,-894.4) translate(68.9 129.1)"/><use xlink:href="#g" transform="matrix(1,0,0,1,-1348,-894.4) translate(0 150.70000000000002)"/><use xlink:href="#c" transform="matrix(1,0,0,1,-1348,-894.4) translate(83.95 150.70000000000002)"/><use xlink:href="#h" transform="matrix(1,0,0,1,-1348,-894.4) translate(0 172.3)"/><use xlink:href="#i" transform="matrix(1,0,0,1,-1348,-894.4) translate(90.85 172.3)"/><use xlink:href="#j" transform="matrix(1,0,0,1,-1348,-894.4) translate(170.75 172.3)"/><use xlink:href="#k" transform="matrix(1,0,0,1,-1348,-894.4) translate(180.75 172.3)"/><path d="M-1820-537.8h300v262h-300z" stroke="#333" stroke-width="2" fill="#fff"/><path d="M-1820-500.2h300" stroke="#333" stroke-width="2" fill="none"/><use xlink:href="#l" transform="matrix(1,0,0,1,-1812,-529.8030206874712) translate(115.025 14.6)"/><use xlink:href="#b" transform="matrix(1,0,0,1,-1808,-492.20302068747117) translate(0 64.39999999999999)"/><use xlink:href="#c" transform="matrix(1,0,0,1,-1808,-492.20302068747117) translate(29.9 64.39999999999999)"/><use xlink:href="#m" transform="matrix(1,0,0,1,-1808,-492.20302068747117) translate(0 86)"/><use xlink:href="#e" transform="matrix(1,0,0,1,-1808,-492.20302068747117) translate(53.85 86)"/><use xlink:href="#n" transform="matrix(1,0,0,1,-1808,-492.20302068747117) translate(0 107.6)"/><use xlink:href="#e" transform="matrix(1,0,0,1,-1808,-492.20302068747117) translate(56.900000000000006 107.6)"/><use xlink:href="#o" transform="matrix(1,0,0,1,-1808,-492.20302068747117) translate(0 129.20000000000002)"/><use xlink:href="#c" transform="matrix(1,0,0,1,-1808,-492.20302068747117) translate(48.9 129.20000000000002)"/><use xlink:href="#p" transform="matrix(1,0,0,1,-1808,-492.20302068747117) translate(0 150.8)"/><use xlink:href="#q" transform="matrix(1,0,0,1,-1808,-492.20302068747117) translate(124.7 150.8)"/><use xlink:href="#r" transform="matrix(1,0,0,1,-1808,-492.20302068747117) translate(239.5 150.8)"/><path d="M-1820-940h300v263h-300z" stroke="#333" stroke-width="2" fill="#fff"/><path d="M-1820-902.4h300" stroke="#333" stroke-width="2" fill="none"/><use xlink:href="#s" transform="matrix(1,0,0,1,-1812,-932) translate(87.14999999999999 14.6)"/><use xlink:href="#b" transform="matrix(1,0,0,1,-1808,-894.4) translate(0 65.39999999999999)"/><use xlink:href="#c" transform="matrix(1,0,0,1,-1808,-894.4) translate(29.9 65.39999999999999)"/><use xlink:href="#d" transform="matrix(1,0,0,1,-1808,-894.4) translate(0 87)"/><use xlink:href="#e" transform="matrix(1,0,0,1,-1808,-894.4) translate(76.85 87)"/><use xlink:href="#t" transform="matrix(1,0,0,1,-1808,-894.4) translate(0 108.6)"/><use xlink:href="#e" transform="matrix(1,0,0,1,-1808,-894.4) translate(87.8 108.6)"/><use xlink:href="#u" transform="matrix(1,0,0,1,-1808,-894.4) translate(0 130.20000000000002)"/><use xlink:href="#c" transform="matrix(1,0,0,1,-1808,-894.4) translate(79.9 130.20000000000002)"/><use xlink:href="#v" transform="matrix(1,0,0,1,-1808,-894.4) translate(0 151.8)"/><use xlink:href="#w" transform="matrix(1,0,0,1,-1808,-894.4) translate(49.8 151.8)"/><use xlink:href="#k" transform="matrix(1,0,0,1,-1808,-894.4) translate(93.64999999999999 151.8)"/><path d="M-900-547h300v270h-300z" stroke="#333" stroke-width="2" fill="#fff"/><path d="M-900-509.4h300" stroke="#333" stroke-width="2" fill="none"/><g><use xlink:href="#x" transform="matrix(1,0,0,1,-892,-539) translate(110.275 14.6)"/></g><g><use xlink:href="#b" transform="matrix(1,0,0,1,-888,-501.4) translate(0 90.5)"/><use xlink:href="#c" transform="matrix(1,0,0,1,-888,-501.4) translate(29.9 90.5)"/><use xlink:href="#d" transform="matrix(1,0,0,1,-888,-501.4) translate(0 112.1)"/><use xlink:href="#e" transform="matrix(1,0,0,1,-888,-501.4) translate(76.85 112.1)"/><use xlink:href="#v" transform="matrix(1,0,0,1,-888,-501.4) translate(0 133.7)"/><use xlink:href="#w" transform="matrix(1,0,0,1,-888,-501.4) translate(49.8 133.7)"/><use xlink:href="#k" transform="matrix(1,0,0,1,-888,-501.4) translate(93.64999999999999 133.7)"/></g><path d="M-900-940h300v244h-300z" stroke="#333" stroke-width="2" fill="#fff"/><path d="M-900-902.4h300" stroke="#333" stroke-width="2" fill="none"/><g><use xlink:href="#y" transform="matrix(1,0,0,1,-892,-932) translate(92.25 14.6)"/></g><g><use xlink:href="#b" transform="matrix(1,0,0,1,-888,-894.4) translate(0 77.5)"/><use xlink:href="#c" transform="matrix(1,0,0,1,-888,-894.4) translate(29.9 77.5)"/><use xlink:href="#z" transform="matrix(1,0,0,1,-888,-894.4) translate(0 99.10000000000001)"/><use xlink:href="#A" transform="matrix(1,0,0,1,-888,-894.4) translate(144.85000000000002 99.10000000000001)"/><use xlink:href="#B" transform="matrix(1,0,0,1,-888,-894.4) translate(0 120.70000000000002)"/><use xlink:href="#C" transform="matrix(1,0,0,1,-888,-894.4) translate(155.85000000000002 120.70000000000002)"/></g><path d="M-1038-412.82h62a6 6 0 0 1 6 6v3.28a6 6 0 0 0 6 6h44.5M-1037.97-412.82h-1.03" stroke="#5e5e5e" stroke-width="2" fill="none"/><path d="M-904.24-397.54l-14.26 4.64v-9.27z" stroke="#5e5e5e" stroke-width="2" fill="#5e5e5e"/><path d="M-1518-406.8h82a6 6 0 0 0 6-6V-432a6 6 0 0 1 6-6h64.5" stroke="#5e5e5e" stroke-width="2" fill="none"/><path d="M-1517.97-405.8h-1.03v-2h1.03z" stroke="#5e5e5e" stroke-width=".05" fill="#5e5e5e"/><path d="M-1344.24-438l-14.26 4.63v-9.26z" stroke="#5e5e5e" stroke-width="2" fill="#5e5e5e"/><path d="M-1518-808.5h72a6 6 0 0 1 6 6v8.1a6 6 0 0 0 6 6h54.5" stroke="#5e5e5e" stroke-width="2" fill="none"/><path d="M-1517.97-807.5h-1.03v-2h1.03z" stroke="#5e5e5e" stroke-width=".05" fill="#5e5e5e"/><path d="M-1364.24-788.4l-14.26 4.64v-9.27z" stroke="#5e5e5e" stroke-width="2" fill="#5e5e5e"/><path d="M-1670-675v117.7" stroke="#5e5e5e" stroke-width="2" fill="none"/><path d="M-1669-674.97h-2V-676h2z" stroke="#5e5e5e" stroke-width=".05" fill="#5e5e5e"/><path d="M-1670-542.04l-4.63-14.26h9.27z" stroke="#5e5e5e" stroke-width="2" fill="#5e5e5e"/><path d="M-1058-788h72a6 6 0 0 0 6-6v-29.2a6 6 0 0 1 6-6h54.5" stroke="#5e5e5e" stroke-width="2" fill="none"/><path d="M-1057.97-787h-1.03v-2h1.03z" stroke="#5e5e5e" stroke-width=".05" fill="#5e5e5e"/><path d="M-904.24-829.2l-14.26 4.63v-9.27z" stroke="#5e5e5e" stroke-width="2" fill="#5e5e5e"/><path d="M-1340-547h300v218h-300z" stroke="#333" stroke-width="2" fill="#fff"/><path d="M-1340-509.4h300" stroke="#333" stroke-width="2" fill="none"/><g><use xlink:href="#D" transform="matrix(1,0,0,1,-1332,-539) translate(94.75 14.6)"/></g><g><use xlink:href="#b" transform="matrix(1,0,0,1,-1328,-501.4) translate(0 64.5)"/><use xlink:href="#c" transform="matrix(1,0,0,1,-1328,-501.4) translate(29.9 64.5)"/><use xlink:href="#d" transform="matrix(1,0,0,1,-1328,-501.4) translate(0 86.10000000000001)"/><use xlink:href="#e" transform="matrix(1,0,0,1,-1328,-501.4) translate(76.85 86.10000000000001)"/><use xlink:href="#v" transform="matrix(1,0,0,1,-1328,-501.4) translate(0 107.70000000000002)"/><use xlink:href="#w" transform="matrix(1,0,0,1,-1328,-501.4) translate(49.8 107.70000000000002)"/><use xlink:href="#k" transform="matrix(1,0,0,1,-1328,-501.4) translate(93.64999999999999 107.70000000000002)"/></g><defs><path fill="#333" d="M232-93c-1 65-40 97-104 97C67 4 28-28 28-90v-158h33c8 89-33 224 67 224 102 0 64-133 71-224h33v155" id="E"/><path fill="#333" d="M185-189c-5-48-123-54-124 2 14 75 158 14 163 119 3 78-121 87-175 55-17-10-28-26-33-46l33-7c5 56 141 63 141-1 0-78-155-14-162-118-5-82 145-84 179-34 5 7 8 16 11 25" id="F"/><path fill="#333" d="M205 0l-28-72H64L36 0H1l101-248h38L239 0h-34zm-38-99l-47-123c-12 45-31 82-46 123h93" id="G"/><path fill="#333" d="M233-177c-1 41-23 64-60 70L243 0h-38l-65-103H63V0H30v-248c88 3 205-21 203 71zM63-129c60-2 137 13 137-47 0-61-80-42-137-45v92" id="H"/><path fill="#333" d="M33 0v-248h34V0H33" id="I"/><path fill="#333" d="M140-251c81 0 123 46 123 126C263-46 219 4 140 4 59 4 17-45 17-125s42-126 123-126zm0 227c63 0 89-41 89-101s-29-99-89-99c-61 0-89 39-89 99S79-25 140-24" id="J"/><g id="a"><use transform="matrix(0.05,0,0,0.05,0,0)" xlink:href="#E"/><use transform="matrix(0.05,0,0,0.05,12.950000000000001,0)" xlink:href="#F"/><use transform="matrix(0.05,0,0,0.05,24.950000000000003,0)" xlink:href="#E"/><use transform="matrix(0.05,0,0,0.05,37.900000000000006,0)" xlink:href="#G"/><use transform="matrix(0.05,0,0,0.05,49.900000000000006,0)" xlink:href="#H"/><use transform="matrix(0.05,0,0,0.05,62.85,0)" xlink:href="#I"/><use transform="matrix(0.05,0,0,0.05,67.85000000000001,0)" xlink:href="#J"/></g><path fill="#333" d="M16-82v-28h88v28H16" id="K"/><path fill="#333" d="M24-231v-30h32v30H24zM24 0v-190h32V0H24" id="L"/><path fill="#333" d="M85-194c31 0 48 13 60 33l-1-100h32l1 261h-30c-2-10 0-23-3-31C134-8 116 4 85 4 32 4 16-35 15-94c0-66 23-100 70-100zm9 24c-40 0-46 34-46 75 0 40 6 74 45 74 42 0 51-32 51-76 0-42-9-74-50-73" id="M"/><path fill="#333" d="M33-154v-36h34v36H33zM33 0v-36h34V0H33" id="N"/><g id="b"><use transform="matrix(0.05,0,0,0.05,0,0)" xlink:href="#K"/><use transform="matrix(0.05,0,0,0.05,5.95,0)" xlink:href="#L"/><use transform="matrix(0.05,0,0,0.05,9.9,0)" xlink:href="#M"/><use transform="matrix(0.05,0,0,0.05,19.9,0)" xlink:href="#N"/></g><path fill="#333" d="M117-194c89-4 53 116 60 194h-32v-121c0-31-8-49-39-48C34-167 62-67 57 0H25l-1-190h30c1 10-1 24 2 32 11-22 29-35 61-36" id="O"/><path fill="#333" d="M59-47c-2 24 18 29 38 22v24C64 9 27 4 27-40v-127H5v-23h24l9-43h21v43h35v23H59v120" id="P"/><g id="c"><use transform="matrix(0.05,0,0,0.05,0,0)" xlink:href="#L"/><use transform="matrix(0.05,0,0,0.05,3.95,0)" xlink:href="#O"/><use transform="matrix(0.05,0,0,0.05,13.949999999999998,0)" xlink:href="#P"/></g><path fill="#333" d="M100-194c62-1 85 37 85 99 1 63-27 99-86 99S16-35 15-95c0-66 28-99 85-99zM99-20c44 1 53-31 53-75 0-43-8-75-51-75s-53 32-53 75 10 74 51 75" id="Q"/><path fill="#333" d="M210-169c-67 3-38 105-44 169h-31v-121c0-29-5-50-35-48C34-165 62-65 56 0H25l-1-190h30c1 10-1 24 2 32 10-44 99-50 107 0 11-21 27-35 58-36 85-2 47 119 55 194h-31v-121c0-29-5-49-35-48" id="R"/><path fill="#333" d="M115-194c53 0 69 39 70 98 0 66-23 100-70 100C84 3 66-7 56-30L54 0H23l1-261h32v101c10-23 28-34 59-34zm-8 174c40 0 45-34 45-75 0-40-5-75-45-74-42 0-51 32-51 76 0 43 10 73 51 73" id="S"/><path fill="#333" d="M114-163C36-179 61-72 57 0H25l-1-190h30c1 12-1 29 2 39 6-27 23-49 58-41v29" id="T"/><path fill="#333" d="M100-194c63 0 86 42 84 106H49c0 40 14 67 53 68 26 1 43-12 49-29l28 8c-11 28-37 45-77 45C44 4 14-33 15-96c1-61 26-98 85-98zm52 81c6-60-76-77-97-28-3 7-6 17-6 28h103" id="U"/><g id="d"><use transform="matrix(0.05,0,0,0.05,0,0)" xlink:href="#K"/><use transform="matrix(0.05,0,0,0.05,5.95,0)" xlink:href="#O"/><use transform="matrix(0.05,0,0,0.05,15.949999999999998,0)" xlink:href="#Q"/><use transform="matrix(0.05,0,0,0.05,25.950000000000003,0)" xlink:href="#R"/><use transform="matrix(0.05,0,0,0.05,40.9,0)" xlink:href="#S"/><use transform="matrix(0.05,0,0,0.05,50.9,0)" xlink:href="#T"/><use transform="matrix(0.05,0,0,0.05,56.85,0)" xlink:href="#U"/><use transform="matrix(0.05,0,0,0.05,66.85,0)" xlink:href="#N"/></g><path fill="#333" d="M135-143c-3-34-86-38-87 0 15 53 115 12 119 90S17 21 10-45l28-5c4 36 97 45 98 0-10-56-113-15-118-90-4-57 82-63 122-42 12 7 21 19 24 35" id="V"/><g id="e"><use transform="matrix(0.05,0,0,0.05,0,0)" xlink:href="#V"/><use transform="matrix(0.05,0,0,0.05,9,0)" xlink:href="#P"/><use transform="matrix(0.05,0,0,0.05,14,0)" xlink:href="#T"/></g><path fill="#333" d="M96-169c-40 0-48 33-48 73s9 75 48 75c24 0 41-14 43-38l32 2c-6 37-31 61-74 61-59 0-76-41-82-99-10-93 101-131 147-64 4 7 5 14 7 22l-32 3c-4-21-16-35-41-35" id="W"/><path fill="#333" d="M84 4C-5 8 30-112 23-190h32v120c0 31 7 50 39 49 72-2 45-101 50-169h31l1 190h-30c-1-10 1-25-2-33-11 22-28 36-60 37" id="X"/><path fill="#333" d="M24 0v-261h32V0H24" id="Y"/><path fill="#333" d="M141-36C126-15 110 5 73 4 37 3 15-17 15-53c-1-64 63-63 125-63 3-35-9-54-41-54-24 1-41 7-42 31l-33-3c5-37 33-52 76-52 45 0 72 20 72 64v82c-1 20 7 32 28 27v20c-31 9-61-2-59-35zM48-53c0 20 12 33 32 33 41-3 63-29 60-74-43 2-92-5-92 41" id="Z"/><g id="f"><use transform="matrix(0.05,0,0,0.05,0,0)" xlink:href="#K"/><use transform="matrix(0.05,0,0,0.05,5.95,0)" xlink:href="#W"/><use transform="matrix(0.05,0,0,0.05,14.949999999999998,0)" xlink:href="#U"/><use transform="matrix(0.05,0,0,0.05,24.95,0)" xlink:href="#M"/><use transform="matrix(0.05,0,0,0.05,34.95,0)" xlink:href="#X"/><use transform="matrix(0.05,0,0,0.05,44.95,0)" xlink:href="#Y"/><use transform="matrix(0.05,0,0,0.05,48.900000000000006,0)" xlink:href="#Z"/><use transform="matrix(0.05,0,0,0.05,58.900000000000006,0)" xlink:href="#N"/></g><g id="g"><use transform="matrix(0.05,0,0,0.05,0,0)" xlink:href="#K"/><use transform="matrix(0.05,0,0,0.05,5.95,0)" xlink:href="#W"/><use transform="matrix(0.05,0,0,0.05,14.949999999999998,0)" xlink:href="#Q"/><use transform="matrix(0.05,0,0,0.05,24.95,0)" xlink:href="#O"/><use transform="matrix(0.05,0,0,0.05,34.95,0)" xlink:href="#P"/><use transform="matrix(0.05,0,0,0.05,39.95,0)" xlink:href="#Z"/><use transform="matrix(0.05,0,0,0.05,49.95,0)" xlink:href="#W"/><use transform="matrix(0.05,0,0,0.05,58.95,0)" xlink:href="#P"/><use transform="matrix(0.05,0,0,0.05,63.95,0)" xlink:href="#Q"/><use transform="matrix(0.05,0,0,0.05,73.95,0)" xlink:href="#N"/></g><path fill="#333" d="M115-194c55 1 70 41 70 98S169 2 115 4C84 4 66-9 55-30l1 105H24l-1-265h31l2 30c10-21 28-34 59-34zm-8 174c40 0 45-34 45-75s-6-73-45-74c-42 0-51 32-51 76 0 43 10 73 51 73" id="aa"/><g id="h"><use transform="matrix(0.05,0,0,0.05,0,0)" xlink:href="#K"/><use transform="matrix(0.05,0,0,0.05,5.95,0)" xlink:href="#aa"/><use transform="matrix(0.05,0,0,0.05,15.949999999999998,0)" xlink:href="#T"/><use transform="matrix(0.05,0,0,0.05,21.9,0)" xlink:href="#U"/><use transform="matrix(0.05,0,0,0.05,31.899999999999995,0)" xlink:href="#V"/><use transform="matrix(0.05,0,0,0.05,40.9,0)" xlink:href="#P"/><use transform="matrix(0.05,0,0,0.05,45.9,0)" xlink:href="#Z"/><use transform="matrix(0.05,0,0,0.05,55.900000000000006,0)" xlink:href="#R"/><use transform="matrix(0.05,0,0,0.05,70.85,0)" xlink:href="#Q"/><use transform="matrix(0.05,0,0,0.05,80.85,0)" xlink:href="#N"/></g><g id="i"><use transform="matrix(0.05,0,0,0.05,0,0)" xlink:href="#aa"/><use transform="matrix(0.05,0,0,0.05,10,0)" xlink:href="#T"/><use transform="matrix(0.05,0,0,0.05,15.949999999999998,0)" xlink:href="#U"/><use transform="matrix(0.05,0,0,0.05,25.950000000000003,0)" xlink:href="#V"/><use transform="matrix(0.05,0,0,0.05,34.95,0)" xlink:href="#P"/><use transform="matrix(0.05,0,0,0.05,39.95,0)" xlink:href="#Z"/><use transform="matrix(0.05,0,0,0.05,49.95,0)" xlink:href="#R"/><use transform="matrix(0.05,0,0,0.05,64.9,0)" xlink:href="#Q"/></g><path fill="#333" d="M26 75v-336h71v23H56V52h41v23H26" id="ab"/><use transform="matrix(0.05,0,0,0.05,0,0)" xlink:href="#ab" id="j"/><path fill="#333" d="M3 75V52h41v-290H3v-23h71V75H3" id="ac"/><use transform="matrix(0.05,0,0,0.05,0,0)" xlink:href="#ac" id="k"/><path fill="#333" d="M30 0v-248h33v221h125V0H30" id="ad"/><path fill="#333" d="M160-131c35 5 61 23 61 61C221 17 115-2 30 0v-248c76 3 177-17 177 60 0 33-19 50-47 57zm-97-11c50-1 110 9 110-42 0-47-63-36-110-37v79zm0 115c55-2 124 14 124-45 0-56-70-42-124-44v89" id="ae"/><g id="l"><use transform="matrix(0.05,0,0,0.05,0,0)" xlink:href="#ad"/><use transform="matrix(0.05,0,0,0.05,10,0)" xlink:href="#I"/><use transform="matrix(0.05,0,0,0.05,15,0)" xlink:href="#ae"/><use transform="matrix(0.05,0,0,0.05,27,0)" xlink:href="#H"/><use transform="matrix(0.05,0,0,0.05,39.95,0)" xlink:href="#J"/></g><g id="m"><use transform="matrix(0.05,0,0,0.05,0,0)" xlink:href="#K"/><use transform="matrix(0.05,0,0,0.05,5.95,0)" xlink:href="#P"/><use transform="matrix(0.05,0,0,0.05,10.95,0)" xlink:href="#L"/><use transform="matrix(0.05,0,0,0.05,14.899999999999999,0)" xlink:href="#P"/><use transform="matrix(0.05,0,0,0.05,19.9,0)" xlink:href="#X"/><use transform="matrix(0.05,0,0,0.05,29.899999999999995,0)" xlink:href="#Y"/><use transform="matrix(0.05,0,0,0.05,33.85,0)" xlink:href="#Q"/><use transform="matrix(0.05,0,0,0.05,43.85,0)" xlink:href="#N"/></g><g id="n"><use transform="matrix(0.05,0,0,0.05,0,0)" xlink:href="#K"/><use transform="matrix(0.05,0,0,0.05,5.95,0)" xlink:href="#Z"/><use transform="matrix(0.05,0,0,0.05,15.949999999999998,0)" xlink:href="#X"/><use transform="matrix(0.05,0,0,0.05,25.950000000000003,0)" xlink:href="#P"/><use transform="matrix(0.05,0,0,0.05,30.950000000000003,0)" xlink:href="#Q"/><use transform="matrix(0.05,0,0,0.05,40.95,0)" xlink:href="#T"/><use transform="matrix(0.05,0,0,0.05,46.900000000000006,0)" xlink:href="#N"/></g><g id="o"><use transform="matrix(0.05,0,0,0.05,0,0)" xlink:href="#K"/><use transform="matrix(0.05,0,0,0.05,5.95,0)" xlink:href="#L"/><use transform="matrix(0.05,0,0,0.05,9.9,0)" xlink:href="#V"/><use transform="matrix(0.05,0,0,0.05,18.9,0)" xlink:href="#S"/><use transform="matrix(0.05,0,0,0.05,28.899999999999995,0)" xlink:href="#O"/><use transform="matrix(0.05,0,0,0.05,38.9,0)" xlink:href="#N"/></g><g id="p"><use transform="matrix(0.05,0,0,0.05,0,0)" xlink:href="#K"/><use transform="matrix(0.05,0,0,0.05,5.95,0)" xlink:href="#M"/><use transform="matrix(0.05,0,0,0.05,15.949999999999998,0)" xlink:href="#L"/><use transform="matrix(0.05,0,0,0.05,19.9,0)" xlink:href="#V"/><use transform="matrix(0.05,0,0,0.05,28.899999999999995,0)" xlink:href="#aa"/><use transform="matrix(0.05,0,0,0.05,38.9,0)" xlink:href="#Q"/><use transform="matrix(0.05,0,0,0.05,48.9,0)" xlink:href="#O"/><use transform="matrix(0.05,0,0,0.05,58.900000000000006,0)" xlink:href="#L"/><use transform="matrix(0.05,0,0,0.05,62.85,0)" xlink:href="#S"/><use transform="matrix(0.05,0,0,0.05,72.85,0)" xlink:href="#L"/><use transform="matrix(0.05,0,0,0.05,76.8,0)" xlink:href="#Y"/><use transform="matrix(0.05,0,0,0.05,80.75,0)" xlink:href="#L"/><use transform="matrix(0.05,0,0,0.05,84.7,0)" xlink:href="#M"/><use transform="matrix(0.05,0,0,0.05,94.7,0)" xlink:href="#Z"/><use transform="matrix(0.05,0,0,0.05,104.7,0)" xlink:href="#M"/><use transform="matrix(0.05,0,0,0.05,114.7,0)" xlink:href="#N"/></g><g id="q"><use transform="matrix(0.05,0,0,0.05,0,0)" xlink:href="#M"/><use transform="matrix(0.05,0,0,0.05,10,0)" xlink:href="#L"/><use transform="matrix(0.05,0,0,0.05,13.949999999999998,0)" xlink:href="#V"/><use transform="matrix(0.05,0,0,0.05,22.95,0)" xlink:href="#aa"/><use transform="matrix(0.05,0,0,0.05,32.95,0)" xlink:href="#Q"/><use transform="matrix(0.05,0,0,0.05,42.95,0)" xlink:href="#O"/><use transform="matrix(0.05,0,0,0.05,52.95,0)" xlink:href="#L"/><use transform="matrix(0.05,0,0,0.05,56.900000000000006,0)" xlink:href="#S"/><use transform="matrix(0.05,0,0,0.05,66.9,0)" xlink:href="#L"/><use transform="matrix(0.05,0,0,0.05,70.85000000000001,0)" xlink:href="#Y"/><use transform="matrix(0.05,0,0,0.05,74.80000000000001,0)" xlink:href="#M"/><use transform="matrix(0.05,0,0,0.05,84.80000000000001,0)" xlink:href="#Z"/><use transform="matrix(0.05,0,0,0.05,94.80000000000001,0)" xlink:href="#M"/><use transform="matrix(0.05,0,0,0.05,104.80000000000001,0)" xlink:href="#ab"/></g><use transform="matrix(0.05,0,0,0.05,0,0)" xlink:href="#ac" id="r"/><path fill="#333" d="M182-130c37 4 62 22 62 59C244 23 116-4 24 0v-248c84 5 203-23 205 63 0 31-19 50-47 55zM76-148c40-3 101 13 101-30 0-44-60-28-101-31v61zm0 110c48-3 116 14 116-37 0-48-69-32-116-35v72" id="af"/><path fill="#333" d="M24 0v-248h52V0H24" id="ag"/><path fill="#333" d="M24 0v-248h52v208h133V0H24" id="ah"/><path fill="#333" d="M140-251c80 0 125 45 125 126S219 4 139 4C58 4 15-44 15-125s44-126 125-126zm-1 214c52 0 73-35 73-88 0-50-21-86-72-86-52 0-73 35-73 86s22 88 72 88" id="ai"/><path fill="#333" d="M136-208V0H84v-208H4v-40h212v40h-80" id="aj"/><path fill="#333" d="M24 0v-248h195v40H76v63h132v40H76v65h150V0H24" id="ak"/><path fill="#333" d="M67-125c0 53 21 87 73 88 37 1 54-22 65-47l45 17C233-25 199 4 140 4 58 4 20-42 15-125 8-235 124-281 211-232c18 10 29 29 36 50l-46 12c-8-25-30-41-62-41-52 0-71 34-72 86" id="al"/><path fill="#333" d="M199 0l-22-63H83L61 0H9l90-248h61L250 0h-51zm-33-102l-36-108c-10 38-24 72-36 108h72" id="am"/><g id="s"><use transform="matrix(0.05,0,0,0.05,0,0)" xlink:href="#af"/><use transform="matrix(0.05,0,0,0.05,12.950000000000001,0)" xlink:href="#ag"/><use transform="matrix(0.05,0,0,0.05,17.950000000000003,0)" xlink:href="#af"/><use transform="matrix(0.05,0,0,0.05,30.900000000000006,0)" xlink:href="#ah"/><use transform="matrix(0.05,0,0,0.05,41.85000000000001,0)" xlink:href="#ag"/><use transform="matrix(0.05,0,0,0.05,46.85000000000001,0)" xlink:href="#ai"/><use transform="matrix(0.05,0,0,0.05,60.85,0)" xlink:href="#aj"/><use transform="matrix(0.05,0,0,0.05,71.80000000000001,0)" xlink:href="#ak"/><use transform="matrix(0.05,0,0,0.05,83.80000000000001,0)" xlink:href="#al"/><use transform="matrix(0.05,0,0,0.05,96.75000000000001,0)" xlink:href="#am"/></g><g id="t"><use transform="matrix(0.05,0,0,0.05,0,0)" xlink:href="#K"/><use transform="matrix(0.05,0,0,0.05,5.95,0)" xlink:href="#M"/><use transform="matrix(0.05,0,0,0.05,15.949999999999998,0)" xlink:href="#L"/><use transform="matrix(0.05,0,0,0.05,19.9,0)" xlink:href="#T"/><use transform="matrix(0.05,0,0,0.05,25.849999999999994,0)" xlink:href="#U"/><use transform="matrix(0.05,0,0,0.05,35.849999999999994,0)" xlink:href="#W"/><use transform="matrix(0.05,0,0,0.05,44.849999999999994,0)" xlink:href="#W"/><use transform="matrix(0.05,0,0,0.05,53.849999999999994,0)" xlink:href="#L"/><use transform="matrix(0.05,0,0,0.05,57.79999999999999,0)" xlink:href="#Q"/><use transform="matrix(0.05,0,0,0.05,67.8,0)" xlink:href="#O"/><use transform="matrix(0.05,0,0,0.05,77.8,0)" xlink:href="#N"/></g><path fill="#333" d="M101-234c-31-9-42 10-38 44h38v23H63V0H32v-167H5v-23h27c-7-52 17-82 69-68v24" id="an"/><g id="u"><use transform="matrix(0.05,0,0,0.05,0,0)" xlink:href="#K"/><use transform="matrix(0.05,0,0,0.05,5.95,0)" xlink:href="#P"/><use transform="matrix(0.05,0,0,0.05,10.95,0)" xlink:href="#U"/><use transform="matrix(0.05,0,0,0.05,20.95,0)" xlink:href="#Y"/><use transform="matrix(0.05,0,0,0.05,24.9,0)" xlink:href="#U"/><use transform="matrix(0.05,0,0,0.05,34.9,0)" xlink:href="#an"/><use transform="matrix(0.05,0,0,0.05,39.9,0)" xlink:href="#Q"/><use transform="matrix(0.05,0,0,0.05,49.9,0)" xlink:href="#O"/><use transform="matrix(0.05,0,0,0.05,59.900000000000006,0)" xlink:href="#Q"/><use transform="matrix(0.05,0,0,0.05,69.9,0)" xlink:href="#N"/></g><g id="v"><use transform="matrix(0.05,0,0,0.05,0,0)" xlink:href="#K"/><use transform="matrix(0.05,0,0,0.05,5.95,0)" xlink:href="#Y"/><use transform="matrix(0.05,0,0,0.05,9.9,0)" xlink:href="#L"/><use transform="matrix(0.05,0,0,0.05,13.850000000000001,0)" xlink:href="#S"/><use transform="matrix(0.05,0,0,0.05,23.85,0)" xlink:href="#T"/><use transform="matrix(0.05,0,0,0.05,29.8,0)" xlink:href="#Q"/><use transform="matrix(0.05,0,0,0.05,39.8,0)" xlink:href="#N"/></g><g id="w"><use transform="matrix(0.05,0,0,0.05,0,0)" xlink:href="#Y"/><use transform="matrix(0.05,0,0,0.05,3.95,0)" xlink:href="#L"/><use transform="matrix(0.05,0,0,0.05,7.9,0)" xlink:href="#S"/><use transform="matrix(0.05,0,0,0.05,17.9,0)" xlink:href="#T"/><use transform="matrix(0.05,0,0,0.05,23.849999999999998,0)" xlink:href="#Q"/><use transform="matrix(0.05,0,0,0.05,33.849999999999994,0)" xlink:href="#ab"/></g><path fill="#333" d="M238-95c0 69-44 99-111 99C63 4 22-25 22-93v-155h51v151c-1 38 19 59 55 60 90 1 49-130 58-211h52v153" id="ao"/><path fill="#333" d="M240-174c0 40-23 61-54 70L253 0h-59l-57-94H76V0H24v-248c93 4 217-23 216 74zM76-134c48-2 112 12 112-38 0-48-66-32-112-35v73" id="ap"/><g id="x"><use transform="matrix(0.05,0,0,0.05,0,0)" xlink:href="#am"/><use transform="matrix(0.05,0,0,0.05,12.950000000000001,0)" xlink:href="#ao"/><use transform="matrix(0.05,0,0,0.05,25.900000000000002,0)" xlink:href="#aj"/><use transform="matrix(0.05,0,0,0.05,36.5,0)" xlink:href="#ai"/><use transform="matrix(0.05,0,0,0.05,50.5,0)" xlink:href="#ap"/></g><path fill="#333" d="M30-248c87 1 191-15 191 75 0 78-77 80-158 76V0H30v-248zm33 125c57 0 124 11 124-50 0-59-68-47-124-48v98" id="aq"/><path fill="#333" d="M30 0v-248h187v28H63v79h144v27H63v87h162V0H30" id="ar"/><path fill="#333" d="M127-220V0H93v-220H8v-28h204v28h-85" id="as"/><path fill="#333" d="M240 0l2-218c-23 76-54 145-80 218h-23L58-218 59 0H30v-248h44l77 211c21-75 51-140 76-211h43V0h-30" id="at"/><g id="y"><use transform="matrix(0.05,0,0,0.05,0,0)" xlink:href="#aq"/><use transform="matrix(0.05,0,0,0.05,12,0)" xlink:href="#H"/><use transform="matrix(0.05,0,0,0.05,24.950000000000003,0)" xlink:href="#ar"/><use transform="matrix(0.05,0,0,0.05,36.95,0)" xlink:href="#F"/><use transform="matrix(0.05,0,0,0.05,48.95,0)" xlink:href="#as"/><use transform="matrix(0.05,0,0,0.05,58.550000000000004,0)" xlink:href="#G"/><use transform="matrix(0.05,0,0,0.05,70.55000000000001,0)" xlink:href="#at"/><use transform="matrix(0.05,0,0,0.05,85.50000000000001,0)" xlink:href="#J"/></g><path fill="#333" d="M106-169C34-169 62-67 57 0H25v-261h32l-1 103c12-21 28-36 61-36 89 0 53 116 60 194h-32v-121c2-32-8-49-39-48" id="au"/><path fill="#333" d="M-5 72V49h209v23H-5" id="av"/><g id="z"><use transform="matrix(0.05,0,0,0.05,0,0)" xlink:href="#K"/><use transform="matrix(0.05,0,0,0.05,5.95,0)" xlink:href="#an"/><use transform="matrix(0.05,0,0,0.05,10.95,0)" xlink:href="#U"/><use transform="matrix(0.05,0,0,0.05,20.95,0)" xlink:href="#W"/><use transform="matrix(0.05,0,0,0.05,29.950000000000003,0)" xlink:href="#au"/><use transform="matrix(0.05,0,0,0.05,39.95,0)" xlink:href="#Z"/><use transform="matrix(0.05,0,0,0.05,49.95,0)" xlink:href="#av"/><use transform="matrix(0.05,0,0,0.05,59.95,0)" xlink:href="#aa"/><use transform="matrix(0.05,0,0,0.05,69.95,0)" xlink:href="#T"/><use transform="matrix(0.05,0,0,0.05,75.9,0)" xlink:href="#U"/><use transform="matrix(0.05,0,0,0.05,85.9,0)" xlink:href="#V"/><use transform="matrix(0.05,0,0,0.05,94.9,0)" xlink:href="#P"/><use transform="matrix(0.05,0,0,0.05,99.9,0)" xlink:href="#Z"/><use transform="matrix(0.05,0,0,0.05,109.9,0)" xlink:href="#R"/><use transform="matrix(0.05,0,0,0.05,124.85000000000001,0)" xlink:href="#Q"/><use transform="matrix(0.05,0,0,0.05,134.85000000000002,0)" xlink:href="#N"/></g><g id="A"><use transform="matrix(0.05,0,0,0.05,0,0)" xlink:href="#M"/><use transform="matrix(0.05,0,0,0.05,10,0)" xlink:href="#Z"/><use transform="matrix(0.05,0,0,0.05,20,0)" xlink:href="#P"/><use transform="matrix(0.05,0,0,0.05,25,0)" xlink:href="#U"/></g><path fill="#333" d="M108 0H70L1-190h34L89-25l56-165h34" id="aw"/><g id="B"><use transform="matrix(0.05,0,0,0.05,0,0)" xlink:href="#K"/><use transform="matrix(0.05,0,0,0.05,5.95,0)" xlink:href="#an"/><use transform="matrix(0.05,0,0,0.05,10.95,0)" xlink:href="#U"/><use transform="matrix(0.05,0,0,0.05,20.95,0)" xlink:href="#W"/><use transform="matrix(0.05,0,0,0.05,29.950000000000003,0)" xlink:href="#au"/><use transform="matrix(0.05,0,0,0.05,39.95,0)" xlink:href="#Z"/><use transform="matrix(0.05,0,0,0.05,49.95,0)" xlink:href="#av"/><use transform="matrix(0.05,0,0,0.05,59.95,0)" xlink:href="#M"/><use transform="matrix(0.05,0,0,0.05,69.95,0)" xlink:href="#U"/><use transform="matrix(0.05,0,0,0.05,79.95,0)" xlink:href="#aw"/><use transform="matrix(0.05,0,0,0.05,88.95,0)" xlink:href="#Q"/><use transform="matrix(0.05,0,0,0.05,98.95,0)" xlink:href="#Y"/><use transform="matrix(0.05,0,0,0.05,102.9,0)" xlink:href="#X"/><use transform="matrix(0.05,0,0,0.05,112.9,0)" xlink:href="#W"/><use transform="matrix(0.05,0,0,0.05,121.9,0)" xlink:href="#L"/><use transform="matrix(0.05,0,0,0.05,125.85000000000001,0)" xlink:href="#Q"/><use transform="matrix(0.05,0,0,0.05,135.85000000000002,0)" xlink:href="#O"/><use transform="matrix(0.05,0,0,0.05,145.85000000000002,0)" xlink:href="#N"/></g><g id="C"><use transform="matrix(0.05,0,0,0.05,0,0)" xlink:href="#M"/><use transform="matrix(0.05,0,0,0.05,10,0)" xlink:href="#Z"/><use transform="matrix(0.05,0,0,0.05,20,0)" xlink:href="#P"/><use transform="matrix(0.05,0,0,0.05,25,0)" xlink:href="#U"/></g><path fill="#333" d="M30-248c118-7 216 8 213 122C240-48 200 0 122 0H30v-248zM63-27c89 8 146-16 146-99s-60-101-146-95v194" id="ax"/><g id="D"><use transform="matrix(0.05,0,0,0.05,0,0)" xlink:href="#ar"/><use transform="matrix(0.05,0,0,0.05,12,0)" xlink:href="#ax"/><use transform="matrix(0.05,0,0,0.05,24.950000000000003,0)" xlink:href="#I"/><use transform="matrix(0.05,0,0,0.05,29.950000000000003,0)" xlink:href="#as"/><use transform="matrix(0.05,0,0,0.05,40.550000000000004,0)" xlink:href="#J"/><use transform="matrix(0.05,0,0,0.05,54.550000000000004,0)" xlink:href="#H"/><use transform="matrix(0.05,0,0,0.05,67.5,0)" xlink:href="#I"/><use transform="matrix(0.05,0,0,0.05,72.5,0)" xlink:href="#G"/><use transform="matrix(0.05,0,0,0.05,84.5,0)" xlink:href="#ad"/></g></defs></g></svg>
